<svg id="wave" style="transform:rotate(180deg); transition: 0.3s" viewBox="0 0 1440 490" version="1.1" xmlns="http://www.w3.org/2000/svg"><defs><linearGradient id="sw-gradient-0" x1="0" x2="0" y1="1" y2="0"><stop stop-color="rgba(70.111, 80.289, 189.418, 1)" offset="0%"></stop><stop stop-color="rgba(84.686, 84.686, 84.686, 1)" offset="100%"></stop></linearGradient></defs><path style="transform:translate(0, 0px); opacity:1" fill="url(#sw-gradient-0)" d="M0,0L60,24.5C120,49,240,98,360,122.5C480,147,600,147,720,130.7C840,114,960,82,1080,122.5C1200,163,1320,278,1440,334.8C1560,392,1680,392,1800,375.7C1920,359,2040,327,2160,261.3C2280,196,2400,98,2520,122.5C2640,147,2760,294,2880,302.2C3000,310,3120,180,3240,163.3C3360,147,3480,245,3600,269.5C3720,294,3840,245,3960,212.3C4080,180,4200,163,4320,171.5C4440,180,4560,212,4680,228.7C4800,245,4920,245,5040,261.3C5160,278,5280,310,5400,277.7C5520,245,5640,147,5760,130.7C5880,114,6000,180,6120,196C6240,212,6360,180,6480,179.7C6600,180,6720,212,6840,204.2C6960,196,7080,147,7200,130.7C7320,114,7440,131,7560,187.8C7680,245,7800,343,7920,326.7C8040,310,8160,180,8280,114.3C8400,49,8520,49,8580,49L8640,49L8640,490L8580,490C8520,490,8400,490,8280,490C8160,490,8040,490,7920,490C7800,490,7680,490,7560,490C7440,490,7320,490,7200,490C7080,490,6960,490,6840,490C6720,490,6600,490,6480,490C6360,490,6240,490,6120,490C6000,490,5880,490,5760,490C5640,490,5520,490,5400,490C5280,490,5160,490,5040,490C4920,490,4800,490,4680,490C4560,490,4440,490,4320,490C4200,490,4080,490,3960,490C3840,490,3720,490,3600,490C3480,490,3360,490,3240,490C3120,490,3000,490,2880,490C2760,490,2640,490,2520,490C2400,490,2280,490,2160,490C2040,490,1920,490,1800,490C1680,490,1560,490,1440,490C1320,490,1200,490,1080,490C960,490,840,490,720,490C600,490,480,490,360,490C240,490,120,490,60,490L0,490Z"></path></svg>